<?xml version="1.0" encoding="utf-8"?>
<!DOCTYPE svg PUBLIC "-//W3C//DTD SVG 1.1//EN" "http://www.w3.org/Graphics/SVG/1.1/DTD/svg11.dtd">
<svg xmlns="http://www.w3.org/2000/svg" version="1.1" xmlns:xlink="http://www.w3.org/1999/xlink" xmlns:svgjs="http://svgjs.com/svgjs" width="512" height="512"><svg version="1.1" xmlns="http://www.w3.org/2000/svg" viewBox="0 0 512 512">
     <style>
    @media (prefers-color-scheme: dark) {
      :root {
        filter: brightness(3);
      }
    };
  </style>
    <path fill='#71B8EF' d="M256,0C114.844,0,0,114.839,0,256s114.844,256,256,256s256-114.839,256-256S397.156,0,256,0z M356.196,339.496 c9.219,0,16.699,7.475,16.699,16.699c0,9.225-7.48,16.699-16.699,16.699c-27.625,0-50.098-22.473-50.098-50.098V172.504H205.902 v183.692c0,9.225-7.48,16.699-16.699,16.699s-16.699-7.475-16.699-16.699V172.504h-16.699c-9.219,0-16.699-7.475-16.699-16.699 s7.48-16.699,16.699-16.699h200.391c9.219,0,16.699,7.475,16.699,16.699s-7.48,16.699-16.699,16.699h-16.699v150.294 C339.496,332.005,346.988,339.496,356.196,339.496z"></path>
</svg><style>@media (prefers-color-scheme: light) { :root { filter: contrast(1) brightness(0.5); } }
@media (prefers-color-scheme: dark) { :root { filter: invert(100%); } }
</style></svg>